<svg xmlns="http://www.w3.org/2000/svg" width="1197" height="1410" viewBox="0 0 1197 1410" version="1.1"><path d="M 585.500 3.880 C 581.100 5.983, 572.550 10.614, 566.500 14.169 C 507.934 48.586, 483.101 63.009, 469.500 70.506 C 425.375 94.828, 365.316 128.549, 347.500 139.004 C 336.500 145.459, 317.600 156.145, 305.500 162.751 C 264.457 185.159, 219.872 210.289, 195.500 224.751 C 176.739 235.884, 159.651 245.056, 149.232 249.585 L 141.792 252.819 146.074 257.465 C 151.988 263.880, 163.063 271.012, 186.451 283.466 C 197.424 289.309, 206.874 294.473, 207.451 294.942 C 208.028 295.411, 219.525 301.968, 233 309.512 C 246.475 317.057, 260.538 325.194, 264.250 327.594 L 271 331.960 271 406.480 C 271 447.466, 270.658 481, 270.239 481 C 269.443 481, 6.165 428.443, 2.250 427.502 L -0 426.962 0 775.248 L 0 1123.535 114.250 1170.412 C 177.088 1196.195, 237.054 1221.223, 247.508 1226.031 C 257.962 1230.839, 282.712 1241.985, 302.508 1250.801 C 372.018 1281.755, 398.836 1294.613, 425.500 1309.769 C 433.750 1314.458, 449.875 1323.188, 461.333 1329.167 C 496.009 1347.264, 527.804 1367.197, 560.500 1391.339 C 581.402 1406.772, 586.341 1409.398, 594.575 1409.457 C 602.588 1409.514, 611.005 1405.344, 637 1388.439 C 717.895 1335.830, 762.037 1310.795, 838 1274.440 C 903.817 1242.940, 962.950 1216.695, 1048.837 1180.862 C 1136.899 1144.123, 1172.832 1129.972, 1189.500 1125.469 L 1197.500 1123.308 1197.751 774.868 L 1198.003 426.428 1184.251 428.143 C 1158.698 431.331, 1110.926 440.447, 1046 454.524 C 977.142 469.455, 936.728 477, 925.620 477 L 922 477 922.027 404.250 L 922.053 331.500 932.777 324.289 C 938.674 320.322, 952.717 312.277, 963.983 306.411 C 1007.781 283.603, 1037.593 265.722, 1047.952 256.045 L 1051.342 252.878 1043.857 249.624 C 1034.347 245.490, 1017.975 236.829, 1003.102 228.065 C 974.053 210.948, 596.742 0.003, 595.217 0.028 C 594.273 0.043, 589.900 1.776, 585.500 3.880 M 588.500 142.685 C 586.850 143.567, 580.775 147.316, 575 151.016 C 569.225 154.716, 559.775 160.355, 554 163.548 C 548.225 166.741, 526.811 179.366, 506.413 191.602 C 441.778 230.378, 395.482 256.173, 383.746 259.950 L 379.992 261.158 380.246 383.674 L 380.500 506.191 396.500 511.441 C 419.141 518.871, 425.448 521.448, 462 538.200 C 506.520 558.604, 520.463 566.515, 566.728 597.621 C 586.409 610.854, 592.317 613.996, 597.500 613.985 C 600.287 613.979, 608.828 609.867, 615.709 605.217 C 630.475 595.240, 653.087 581.397, 669.547 572.256 C 679.473 566.744, 690.267 560.525, 693.534 558.435 C 701.303 553.465, 733.328 537.984, 753.298 529.544 C 768.191 523.250, 778.959 519.483, 799.144 513.504 C 808.685 510.678, 813.821 507.724, 815.721 503.970 C 816.699 502.037, 816.969 476.721, 816.962 387.500 L 816.954 273.500 732.727 220.741 C 640.861 163.198, 614.289 146.941, 606.221 143.350 C 600.051 140.603, 592.894 140.334, 588.500 142.685 M 0.494 775.500 C 0.494 967.450, 0.609 1045.826, 0.750 949.669 C 0.891 853.512, 0.891 696.462, 0.750 600.669 C 0.609 504.876, 0.494 583.550, 0.494 775.500 M 114 802.361 L 114 1043.845 117.750 1045.077 C 152.845 1056.613, 315.627 1128.929, 407.500 1173.800 C 461.396 1200.123, 473.457 1206.513, 531.500 1239.492 C 572.434 1262.750, 591.893 1273.511, 596.507 1275.439 C 600.807 1277.235, 599.871 1277.627, 615.285 1267.576 C 655.949 1241.063, 715.289 1208.507, 792 1170.624 C 823.930 1154.855, 854.600 1140.978, 925 1110.446 C 975.325 1088.620, 1026.400 1066.738, 1038.500 1061.819 C 1050.600 1056.899, 1064.714 1050.882, 1069.865 1048.446 L 1079.229 1044.018 1078.365 950.759 C 1077.120 816.469, 1077.372 635.683, 1078.845 607 C 1080.003 584.468, 1081.418 568.166, 1082.641 563.295 C 1083.295 560.690, 1083.533 560.686, 1063 563.631 C 1021.073 569.645, 883.556 602.414, 828.348 619.547 C 766.022 638.889, 703.420 674.306, 664.147 712.446 C 652.408 723.845, 646.094 731.832, 639.382 743.774 C 636.824 748.325, 634.454 752.210, 634.116 752.407 C 633.777 752.605, 617.657 753.094, 598.293 753.495 L 563.085 754.223 560.293 749.502 C 551.197 734.125, 538.716 721.003, 517.420 704.424 C 487.142 680.852, 469.911 669.612, 441.500 654.899 C 381.374 623.763, 309.884 600.966, 203.526 579.015 C 189.791 576.180, 169.316 571.684, 158.026 569.023 C 139.185 564.583, 131.920 563.190, 118.750 561.490 L 114 560.877 114 802.361" stroke="none" fill="#248cf4" fill-rule="evenodd"/><path d="M 521 369 L 521 461 596.500 461 L 672 461 672 369 L 672 277 596.500 277 L 521 277 521 369 M 573.928 799.467 C 538.810 805.201, 504.998 821.771, 480.129 845.437 C 458.919 865.621, 440.496 900.012, 435.477 928.791 C 433.719 938.875, 433.502 967.535, 435.063 983.576 C 437.239 1005.938, 443.550 1030.149, 451.188 1045.434 C 470.792 1084.665, 516.542 1118.036, 564.434 1128.037 C 599.625 1135.385, 637.117 1130.704, 669.500 1114.918 C 714.843 1092.814, 745.437 1054.377, 757.911 1003.842 C 769.911 955.224, 761.114 908.704, 732.128 867.500 C 724.556 856.737, 704.672 837.041, 693 828.745 C 675.271 816.142, 651.312 805.692, 629.261 800.944 C 616.474 798.191, 586.624 797.394, 573.928 799.467" stroke="none" fill="#fcfcfc" fill-rule="evenodd"/></svg>